<?xml version="1.0" encoding="UTF-8"?>
<!-- Generator: visioncortex VTracer -->
<svg id="svg" version="1.1" xmlns="http://www.w3.org/2000/svg" style="display: block; background: rgb(255, 255, 255);" viewBox="0 0 2048 2048"><path d="M0 0 C74.91 0 149.82 0 227 0 C227.60777829 12.15556583 228.16472116 24.14957568 228.13037109 36.29760742 C228.1248582 38.62229515 228.13044691 40.9468013 228.13671875 43.27148438 C228.1360602 44.76562542 228.1347837 46.25976636 228.1328125 47.75390625 C228.13483673 48.44126358 228.13686096 49.12862091 228.13894653 49.83680725 C228.12405165 52.84183848 227.958884 55.12334801 227 58 C152.09 58 77.18 58 0 58 C0 38.86 0 19.72 0 0 Z " transform="translate(1404,1148)" style="fill: #000000;"/><path d="M0 0 C3.35150659 1.25243146 4.98710395 2.99347789 7.42578125 5.6015625 C10.96648886 9.35598329 14.63699082 12.79048595 18.53637695 16.16015625 C21.87105941 19.07658242 25.081484 22.12153934 28.30078125 25.1640625 C29.70666295 26.48737056 31.11291786 27.81028222 32.51953125 29.1328125 C33.21046875 29.7825 33.90140625 30.4321875 34.61328125 31.1015625 C39.05961216 35.26999773 43.54752176 39.39346171 48.03222656 43.52050781 C49.65185826 45.01208957 51.26958489 46.50571073 52.88671875 48 C58.07662231 52.79559719 63.2732287 57.58331499 68.48828125 62.3515625 C73.75916718 67.17505228 78.9839566 72.04628776 84.18701172 76.94287109 C87.25816565 79.82255029 90.36282574 82.64711146 93.54296875 85.40625 C97.80062232 89.10855745 101.89763648 92.96661873 105.98828125 96.8515625 C111.27800221 101.85393496 116.59950044 106.8044177 122.03515625 111.6484375 C125.38942954 114.67744793 128.6886594 117.76324852 131.98828125 120.8515625 C143.77874705 131.92030179 143.77874705 131.92030179 155.86328125 142.6640625 C159.33869032 145.66884326 162.55936886 148.87954556 165.75390625 152.1796875 C167.60297684 153.96660446 169.52532518 155.47988603 171.61328125 156.9765625 C171.04542507 160.36913918 170.15366042 161.71695147 167.48828125 163.8515625 C163.26281895 167.37784758 159.2454665 171.08221019 155.23828125 174.8515625 C151.107017 178.72626413 146.96869659 182.58475432 142.73828125 186.3515625 C137.42337623 191.10048762 132.25444307 196.00103867 127.07177734 200.89306641 C121.67014878 205.98950474 116.23646371 211.04831433 110.765625 216.0703125 C108.49253996 218.15858803 106.23866764 220.26594847 103.9921875 222.3828125 C103.09741699 223.22150879 103.09741699 223.22150879 102.18457031 224.07714844 C101.03568181 225.15459024 99.89032949 226.2358186 98.74902344 227.32128906 C94.83810209 230.9765625 94.83810209 230.9765625 92.61328125 230.9765625 C92.61328125 231.6365625 92.61328125 232.2965625 92.61328125 232.9765625 C91.95328125 232.9765625 91.29328125 232.9765625 90.61328125 232.9765625 C90.61328125 233.6365625 90.61328125 234.2965625 90.61328125 234.9765625 C89.95328125 234.9765625 89.29328125 234.9765625 88.61328125 234.9765625 C88.61328125 235.6365625 88.61328125 236.2965625 88.61328125 236.9765625 C87.14453125 238.421875 87.14453125 238.421875 85.11328125 240.1015625 C82.14650764 242.61914152 79.33753876 245.19825226 76.61328125 247.9765625 C66.34824366 258.3628407 66.34824366 258.3628407 60.61328125 260.9765625 C60.61328125 261.6365625 60.61328125 262.2965625 60.61328125 262.9765625 C59.390625 264.2109375 59.390625 264.2109375 57.55078125 265.7265625 C53.39521012 269.25806376 49.40156249 272.93354378 45.42578125 276.6640625 C44.11339116 277.89334652 42.80089046 279.12251246 41.48828125 280.3515625 C40.83859375 280.96 40.18890625 281.5684375 39.51953125 282.1953125 C36.66509039 284.86257691 33.79729968 287.51520658 30.92578125 290.1640625 C30.39871582 290.65060303 29.87165039 291.13714355 29.32861328 291.63842773 C26.69928785 294.06290754 24.06346144 296.47988672 21.41796875 298.88671875 C16.25890074 303.58464101 11.19918555 308.34016293 6.3046875 313.31640625 C4.20349324 315.37877937 1.96752954 317.21087628 -0.38671875 318.9765625 C-3.87326351 317.4924252 -6.02862947 315.51442198 -8.63671875 312.7890625 C-11.35188627 310.01238633 -14.06127879 307.31432989 -17.01171875 304.7890625 C-21.88973399 300.61356061 -26.53302147 296.18713669 -31.19580078 291.7746582 C-31.82212402 291.18515381 -32.44844727 290.59564941 -33.09375 289.98828125 C-33.65553955 289.45678467 -34.2173291 288.92528809 -34.79614258 288.37768555 C-36.54369441 286.7753136 -36.54369441 286.7753136 -39.38671875 284.9765625 C-39.38671875 284.3165625 -39.38671875 283.6565625 -39.38671875 282.9765625 C-39.98484375 282.7084375 -40.58296875 282.4403125 -41.19921875 282.1640625 C-43.43265158 280.95162754 -44.88610074 280.03003977 -46.38671875 277.9765625 C-46.03487316 274.08171362 -44.15527537 272.5558333 -41.26171875 270.1015625 C-39.90820312 268.9259375 -39.90820312 268.9259375 -38.52734375 267.7265625 C-38.02654297 267.29214844 -37.52574219 266.85773438 -37.00976562 266.41015625 C-33.94931233 263.70693998 -30.98762246 260.89708545 -28.01171875 258.1015625 C-19.9804989 250.58308108 -11.90829188 243.11365637 -3.69921875 235.7890625 C1.74986879 230.90337012 7.05413287 225.86654747 12.3737793 220.84106445 C16.82161244 216.64500473 21.31897502 212.51857388 25.88671875 208.453125 C30.44662434 204.31131964 34.90840471 200.06430631 39.375 195.82226562 C42.79174312 192.58753593 46.2359108 189.40844654 49.79296875 186.328125 C53.05211888 183.50086225 56.09906908 180.56340629 59.11328125 177.4765625 C62.87641482 173.65596654 66.74140194 170.02866669 70.8203125 166.546875 C73.55447758 164.15224676 76.07588271 161.577396 78.61328125 158.9765625 C77.22203903 155.80193337 75.62054881 153.78753497 73.0859375 151.4375 C72.38114258 150.77919189 71.67634766 150.12088379 70.95019531 149.44262695 C70.19963867 148.75257568 69.44908203 148.06252441 68.67578125 147.3515625 C67.91104492 146.6402417 67.14630859 145.9289209 66.35839844 145.19604492 C61.24766896 140.45167405 56.1025146 135.74477647 50.91015625 131.08984375 C49.31768794 129.62466457 47.76492168 128.11560353 46.24609375 126.57421875 C43.207655 123.57635262 40.00346215 120.84658329 36.73828125 118.1015625 C32.37569894 114.40211527 28.15587535 110.67277195 24.18359375 106.55078125 C22.40068565 104.76343806 20.5260675 103.12388602 18.61328125 101.4765625 C16.00680516 99.2309831 13.52393604 96.93104738 11.11328125 94.4765625 C8.18941137 91.50680229 5.12746571 88.77149871 1.97265625 86.05078125 C-0.98535999 83.45027359 -3.87370725 80.7793164 -6.76171875 78.1015625 C-10.54769618 74.5914491 -14.34641208 71.10105192 -18.19921875 67.6640625 C-23.41615429 62.99447757 -28.50698604 58.19292729 -33.59106445 53.37963867 C-37.75663558 49.4502357 -42.01114679 45.67111159 -46.38671875 41.9765625 C-39.85645318 33.81373053 -31.95673388 27.0488563 -24.07421875 20.2265625 C-20.96142338 17.53094589 -18.06753881 14.67904899 -15.18359375 11.7421875 C-12.62092004 9.22408203 -9.91215444 6.89033545 -7.18359375 4.5546875 C-5.35282907 3.03767144 -5.35282907 3.03767144 -3.96484375 1.2109375 C-2.38671875 -0.0234375 -2.38671875 -0.0234375 0 0 Z " transform="translate(1219.38671875,870.0234375)" style="fill: #000000;"/><path d="M0 0 C1.31327774 -0.00701431 2.62655548 -0.01402863 3.97962952 -0.02125549 C8.18564352 -0.04061561 12.39160216 -0.04568848 16.59765625 -0.046875 C17.67258331 -0.04753778 17.67258331 -0.04753778 18.76922607 -0.04821396 C39.88081342 -0.05503991 60.72011126 0.18416146 81.66015625 3.203125 C83.60245117 3.46851074 83.60245117 3.46851074 85.58398438 3.73925781 C134.71608583 10.48396383 182.5628936 23.47635899 227.66015625 44.203125 C228.67352051 44.6657373 229.68688477 45.12834961 230.73095703 45.60498047 C257.58770827 57.93676013 283.70927105 72.32425648 307.5234375 89.89453125 C309.67235645 91.47611419 311.82376967 93.02436665 314.015625 94.54296875 C323.66387021 101.24812255 332.69649589 108.61356195 341.66015625 116.203125 C342.69317871 117.07735107 342.69317871 117.07735107 343.74707031 117.96923828 C350.99419404 124.12496939 358.06802844 130.34008783 364.66015625 137.203125 C367.48818514 140.0458832 370.33380634 142.87050439 373.18359375 145.69140625 C379.56404669 152.01756447 385.89884534 158.30005088 391.66015625 165.203125 C392.46324219 166.12867188 393.26632812 167.05421875 394.09375 168.0078125 C400.82257949 175.78775547 407.03340286 183.8853151 413.13964844 192.15917969 C414.64258506 194.17950489 416.16657548 196.18183033 417.69921875 198.1796875 C432.1300678 217.03934644 444.2305742 237.41755695 455.66015625 258.203125 C456.03140625 258.87569336 456.40265625 259.54826172 456.78515625 260.24121094 C463.0411056 271.62899375 468.51143721 283.27766516 473.66015625 295.203125 C474.11261719 296.23888672 474.56507812 297.27464844 475.03125 298.34179688 C487.65695031 327.37406438 497.87134343 357.25451011 504.66015625 388.203125 C504.92521973 389.41129883 505.1902832 390.61947266 505.46337891 391.86425781 C512.46977934 424.3242902 516.6600828 457.01114458 517.66015625 490.203125 C517.68352051 490.95432617 517.70688477 491.70552734 517.73095703 492.47949219 C519.97565891 578.07997224 496.6567973 663.45945048 406.13232422 810.41064453 C404.82916938 811.9973382 403.5422457 813.59733214 402.2578125 815.19921875 C396.88136374 821.89790446 391.15907228 828.20047786 385.28564453 834.45996094 C383.62536255 836.24043756 381.9830827 838.03616762 380.34375 839.8359375 C371.86818532 849.09989855 362.92752318 857.73594727 353.66015625 866.203125 C352.72042969 867.069375 351.78070312 867.935625 350.8125 868.828125 C345.92621478 873.28850581 340.90071097 877.54274022 335.75390625 881.69921875 C333.49033789 883.53122294 331.2425838 885.37639357 329.00390625 887.23828125 C319.55005618 895.06749067 309.78814547 902.2729271 299.66015625 909.203125 C299.08072266 909.6053125 298.50128906 910.0075 297.90429688 910.421875 C276.21843666 925.47231961 253.29668731 938.50068566 229.66015625 950.203125 C228.4695459 950.79528809 228.4695459 950.79528809 227.25488281 951.39941406 C222.43769974 953.77845904 217.56885359 956.01998367 212.66015625 958.203125 C211.77763184 958.60031738 210.89510742 958.99750977 209.98583984 959.40673828 C163.57288725 980.16201834 115.09004802 992.16083382 64.66015625 998.203125 C63.39619019 998.35563721 63.39619019 998.35563721 62.10668945 998.51123047 C52.35326017 999.54012577 42.52033199 999.61190895 32.72265625 999.828125 C31.74417725 999.84991821 30.76569824 999.87171143 29.75756836 999.89416504 C-40.29796306 1001.39000251 -110.00735996 988.89551092 -174.15917969 960.17724609 C-176.5171565 959.12391789 -178.88499967 958.09490114 -181.25390625 957.06640625 C-192.10291989 952.31656855 -202.63696916 947.1069126 -213.04150391 941.45166016 C-215.27528747 940.23819413 -217.51618414 939.03873824 -219.7578125 937.83984375 C-251.23473683 920.84412571 -280.46891228 899.75926964 -307.33984375 876.203125 C-308.09523438 875.54828125 -308.850625 874.8934375 -309.62890625 874.21875 C-314.12469234 870.31404336 -318.54021268 866.32298331 -322.9453125 862.31640625 C-325.34970264 860.19442409 -327.83374187 858.20298594 -330.33984375 856.203125 C-332.02981698 854.56009547 -333.69200769 852.88841188 -335.33984375 851.203125 C-336.02304688 850.53023437 -336.70625 849.85734375 -337.41015625 849.1640625 C-341.56067737 845.06981963 -345.54316385 840.9146505 -349.3359375 836.48828125 C-351.39624186 834.13881137 -353.51356794 831.85361684 -355.64672852 829.57055664 C-361.48413585 823.31690572 -367.03509018 816.92023768 -372.33984375 810.203125 C-372.85272949 809.55746582 -373.36561523 808.91180664 -373.89404297 808.24658203 C-397.56074025 778.40536978 -417.86506138 746.57608839 -434.33984375 712.203125 C-434.82759277 711.19427246 -434.82759277 711.19427246 -435.32519531 710.16503906 C-437.06747319 706.55346195 -438.75667827 702.9206134 -440.40478516 699.26513672 C-441.07159915 697.79466388 -441.74666463 696.32792121 -442.42724609 694.86376953 C-454.07491429 669.75226867 -462.6167352 643.03558244 -469.33984375 616.203125 C-469.63375 615.06101562 -469.92765625 613.91890625 -470.23046875 612.7421875 C-470.33984375 610.203125 -470.33984375 610.203125 -469.00390625 608.33203125 C-468.33101562 607.81511719 -467.658125 607.29820312 -466.96484375 606.765625 C-466.2171875 606.17265625 -465.46953125 605.5796875 -464.69921875 604.96875 C-463.53132812 604.09476563 -463.53132812 604.09476563 -462.33984375 603.203125 C-460.96368942 602.14212052 -459.58870709 601.07959435 -458.21484375 600.015625 C-457.46847656 599.44199219 -456.72210937 598.86835937 -455.953125 598.27734375 C-452.70565853 595.69975826 -449.54998371 593.02616299 -446.40234375 590.328125 C-445.85368652 589.85866455 -445.3050293 589.3892041 -444.73974609 588.90551758 C-436.05035695 581.4215124 -427.66286833 573.69290319 -419.57055664 565.56420898 C-418.14646883 564.13472783 -416.71706331 562.71071989 -415.28710938 561.28710938 C-407.90269504 553.89240317 -401.05044283 546.27331547 -394.65234375 538.015625 C-393.29653831 536.27570638 -391.94032971 534.53614415 -390.58056641 532.79931641 C-389.41730442 531.30277826 -388.27429213 529.79056188 -387.1328125 528.27734375 C-386.54113281 527.59285156 -385.94945312 526.90835938 -385.33984375 526.203125 C-384.67984375 526.203125 -384.01984375 526.203125 -383.33984375 526.203125 C-383.25009277 527.04045166 -383.1603418 527.87777832 -383.06787109 528.74047852 C-379.85864351 558.13708311 -375.14701674 586.88891068 -366.33984375 615.203125 C-365.97375 616.3876123 -365.60765625 617.57209961 -365.23046875 618.79248047 C-360.03281372 635.42714224 -354.04156557 651.5293662 -346.67041016 667.34375 C-345.39735007 670.07954444 -344.15324841 672.82685837 -342.9140625 675.578125 C-330.90220418 701.90811844 -315.08731318 726.38495002 -297.33984375 749.203125 C-296.4839737 750.3265173 -295.62852747 751.45023257 -294.7734375 752.57421875 C-289.27334863 759.74764644 -283.47409987 766.50504129 -277.26171875 773.0703125 C-275.15892887 775.2955153 -273.14572997 777.57879187 -271.15234375 779.90234375 C-266.97352512 784.70261599 -262.51603822 789.21300424 -258.01660156 793.71166992 C-256.60064428 795.12980784 -255.19286086 796.55609165 -253.78515625 797.98242188 C-247.61383534 804.16663552 -241.16762489 809.76109677 -234.33984375 815.203125 C-232.9372223 816.37129664 -231.53843554 817.54409664 -230.14453125 818.72265625 C-221.19186655 826.24405932 -212.01435616 833.24432341 -202.35253906 839.83007812 C-200.45270454 841.12613215 -198.56373515 842.43672985 -196.67578125 843.75 C-187.03979312 850.38310869 -176.95664201 856.18128223 -166.73779297 861.86474609 C-164.72210964 862.98976911 -162.71864077 864.13245337 -160.71875 865.28515625 C-78.46008301 911.30737865 23.72942848 923.17729432 114.36230469 898.18212891 C167.34159944 882.89672833 216.94094239 858.23740091 259.66015625 823.203125 C261.30590838 821.91135487 262.95174399 820.61969109 264.59765625 819.328125 C269.18091365 815.66583612 273.51753796 811.77499206 277.82421875 807.79296875 C279.95726776 805.84501904 282.1123481 803.95667484 284.3046875 802.078125 C289.16929984 797.8344904 293.72617229 793.28759257 298.27856445 788.71508789 C299.72040846 787.26788115 301.16752741 785.82610474 302.61523438 784.38476562 C307.84162987 779.16284608 312.9060808 773.86052721 317.66015625 768.203125 C318.16442139 767.60556396 318.66868652 767.00800293 319.18823242 766.39233398 C380.65682375 692.87498265 417.28273303 600.85469737 416.59765625 462.640625 C411.97624966 413.31193619 398.02535619 366.19999654 377.66015625 321.203125 C377.06823486 319.88054687 377.06823486 319.88054687 376.46435547 318.53125 C362.52997455 287.46021695 343.84087305 257.05431629 321.66015625 231.203125 C320.80192857 230.17439072 319.9452362 229.14437423 319.08984375 228.11328125 C307.24642931 213.88668874 294.68702092 199.85795417 280.57421875 187.8359375 C278.46454131 186.03625348 276.40770627 184.18435382 274.34765625 182.328125 C254.06219145 164.35017488 231.21379288 149.53286962 207.66015625 136.203125 C207.01208008 135.83509766 206.36400391 135.46707031 205.69628906 135.08789062 C187.66301811 124.94702044 168.45815932 116.29999476 148.77832031 109.90380859 C146.45385351 109.13488055 144.14750967 108.32183044 141.83984375 107.50390625 C129.25383072 103.09471688 116.54415726 99.76376917 103.53466797 96.85107422 C101.00976317 96.28193057 98.49294748 95.68743195 95.9765625 95.08203125 C85.88156831 92.72466524 75.6861046 91.30781101 65.41015625 90.015625 C64.40527664 89.88834015 64.40527664 89.88834015 63.38009644 89.75848389 C48.15009512 87.85096704 32.99659971 86.96723358 17.66015625 86.953125 C16.88657776 86.95211792 16.11299927 86.95111084 15.315979 86.95007324 C-25.40703274 86.98543662 -67.33681742 93.17681966 -105.89355469 106.37695312 C-108.18170789 107.14971864 -110.47796376 107.88018531 -112.78515625 108.59375 C-130.44129588 114.11765931 -147.79131872 121.30710596 -163.9453125 130.3359375 C-166.2731445 131.61637904 -168.55872345 132.81155859 -170.953125 133.9453125 C-197.98390095 146.75267666 -222.81054993 164.84731291 -244.87109375 184.953125 C-247.3631674 187.224382 -249.88225223 189.46304365 -252.40234375 191.703125 C-259.09934874 197.73882699 -265.49183742 204.02235438 -271.3515625 210.87890625 C-272.87765632 212.66284696 -274.42626083 214.42755075 -275.984375 216.18359375 C-284.10783003 225.39442971 -291.28639237 235.15879153 -298.33984375 245.203125 C-299.17539795 246.37597046 -299.17539795 246.37597046 -300.02783203 247.57250977 C-304.43847285 253.79490613 -308.56226493 260.16469248 -312.58984375 266.640625 C-313.24460693 267.69193604 -313.89937012 268.74324707 -314.57397461 269.82641602 C-319.85499503 278.34567006 -324.96741728 286.94595132 -329.90478516 295.66845703 C-330.90898929 297.4421296 -331.91677581 299.21377652 -332.92724609 300.98388672 C-340.56468668 314.36778304 -347.84037917 327.89997842 -354.87182617 341.6081543 C-359.54090366 350.70474928 -364.37212798 359.70159926 -369.30078125 368.66015625 C-372.75557951 374.94150398 -376.13881922 381.26085967 -379.52734375 387.578125 C-384.0237432 395.9508574 -388.57444124 404.28444438 -393.27734375 412.54296875 C-394.95109933 415.48881212 -396.5695699 418.46244284 -398.18359375 421.44140625 C-403.65877724 431.50068369 -409.51409545 441.34416634 -415.33984375 451.203125 C-415.92894531 452.20085937 -416.51804687 453.19859375 -417.125 454.2265625 C-424.79719161 467.16802217 -432.87488604 479.69921798 -441.67919922 491.90039062 C-443.32795516 494.18663968 -444.96155132 496.48316194 -446.59375 498.78125 C-447.59144206 500.17259682 -448.59008553 501.56326209 -449.58984375 502.953125 C-450.04383545 503.59185547 -450.49782715 504.23058594 -450.96557617 504.88867188 C-452.04060094 506.36436694 -453.1837114 507.79007435 -454.33984375 509.203125 C-454.99984375 509.203125 -455.65984375 509.203125 -456.33984375 509.203125 C-456.58347656 509.76386719 -456.82710937 510.32460937 -457.078125 510.90234375 C-461.12830383 518.28796396 -468.34914461 524.33608708 -474.33984375 530.203125 C-476.86103901 532.71192094 -479.36763439 535.23169482 -481.84765625 537.78125 C-488.00959724 544.07194796 -494.42147714 549.73751379 -501.33984375 555.203125 C-502.10425781 555.83476563 -502.86867188 556.46640625 -503.65625 557.1171875 C-532.42836615 580.77750637 -566.40301389 598.58155904 -601.33984375 611.203125 C-602.25040527 611.53763672 -603.1609668 611.87214844 -604.09912109 612.21679688 C-654.11447119 630.4235555 -708.6159949 638.11080552 -761.63891602 639.74584961 C-762.29693683 639.76660046 -762.95495764 639.7873513 -763.63291848 639.80873096 C-778.86974887 640.28322045 -794.10609481 640.4195554 -809.34927058 640.50644803 C-813.13411703 640.52890092 -816.91893084 640.5559885 -820.70375061 640.58250427 C-827.81422628 640.63165561 -834.92472083 640.67686896 -842.03523213 640.72052664 C-850.15431881 640.77057918 -858.27337268 640.82523628 -866.39242733 640.88020623 C-883.0415356 640.99282946 -899.69067442 641.09991053 -916.33984375 641.203125 C-916.33946403 641.94968257 -916.33908431 642.69624014 -916.33869308 643.46542066 C-916.31633879 687.66441284 -916.29916924 731.86340439 -916.28877842 776.06240108 C-916.28752764 781.36362222 -916.28623333 786.66484334 -916.28491211 791.96606445 C-916.28451864 793.54920151 -916.28451864 793.54920151 -916.28411723 795.16432113 C-916.27976011 812.27730961 -916.27187233 829.39029474 -916.26269095 846.50328123 C-916.25335559 864.04898839 -916.24778839 881.59469379 -916.24575526 899.14040333 C-916.24437978 909.97623939 -916.24002789 920.812066 -916.23192728 931.64789916 C-916.22666126 939.06778714 -916.22503912 946.48767021 -916.22634237 953.90755992 C-916.22698598 958.19517947 -916.2259657 962.48278246 -916.22063828 966.77039909 C-916.21580457 970.68903916 -916.21550491 974.60765139 -916.21894486 978.52629269 C-916.21937058 979.95025855 -916.2180746 981.37422609 -916.21496057 982.79818862 C-916.21099693 984.72117021 -916.21368723 986.64416219 -916.21679592 988.56714535 C-916.2164162 989.63909584 -916.21603648 990.71104633 -916.21564525 991.81548017 C-916.33984375 994.203125 -916.33984375 994.203125 -917.33984375 995.203125 C-918.80366457 995.3007283 -920.27218668 995.32867967 -921.73925781 995.32896614 C-923.17299492 995.33287776 -923.17299492 995.33287776 -924.63569641 995.33686841 C-925.69822128 995.33463768 -926.76074615 995.33240696 -927.85546875 995.33010864 C-928.97451096 995.33166863 -930.09355316 995.33322862 -931.24650574 995.33483589 C-935.02763148 995.33885117 -938.80871765 995.3356542 -942.58984375 995.33251953 C-945.28784301 995.33387334 -947.98583946 995.33561673 -950.68383789 995.33782959 C-957.27007753 995.34228803 -963.8563058 995.34131049 -970.44254589 995.33841695 C-975.79291566 995.3361632 -981.14328224 995.33585027 -986.49365234 995.33694077 C-987.63368949 995.33717061 -987.63368949 995.33717061 -988.7967577 995.33740511 C-990.34048843 995.33772482 -991.88421917 995.33804903 -993.42794991 995.3383777 C-1007.92076547 995.34123271 -1022.41357471 995.33794514 -1036.90638924 995.33257733 C-1049.35556474 995.32810928 -1061.80473092 995.3288852 -1074.25390625 995.33349609 C-1088.69307102 995.33884149 -1103.13223025 995.34095802 -1117.57139587 995.33788383 C-1119.10960897 995.33756526 -1120.64782206 995.33725089 -1122.18603516 995.33694077 C-1122.94296567 995.33678649 -1123.69989618 995.33663221 -1124.47976398 995.33647326 C-1129.8268427 995.335608 -1135.17391792 995.33707118 -1140.52099609 995.33942032 C-1147.03279467 995.34221813 -1153.54458118 995.34148045 -1160.05637836 995.33613957 C-1163.38200475 995.3335023 -1166.70760672 995.33303168 -1170.03323364 995.33578873 C-1173.63024916 995.33849704 -1177.22720697 995.33512302 -1180.82421875 995.33010864 C-1181.88674362 995.33233936 -1182.94926849 995.33457009 -1184.04399109 995.33686841 C-1184.99981583 995.33426066 -1185.95564056 995.33165291 -1186.94042969 995.32896614 C-1187.77185486 995.32880379 -1188.60328003 995.32864144 -1189.4598999 995.32847416 C-1191.33984375 995.203125 -1191.33984375 995.203125 -1192.33984375 994.203125 C-1192.4386699 992.06083465 -1192.46507453 989.91520898 -1192.46519291 987.77064037 C-1192.46659523 987.08617003 -1192.46799755 986.40169969 -1192.46944236 985.69648783 C-1192.47296234 983.36942931 -1192.46926519 981.0424355 -1192.46568489 978.71537781 C-1192.46672663 977.0363735 -1192.46820683 975.35736941 -1192.47008926 973.67836583 C-1192.47401602 969.02119707 -1192.47163636 964.3640488 -1192.4683113 959.70688035 C-1192.46579122 954.65668315 -1192.46902787 949.60648927 -1192.47155464 944.55629253 C-1192.47517987 935.69085055 -1192.47504849 926.82541465 -1192.47250748 917.95997238 C-1192.46873921 904.77717716 -1192.4706513 891.5943871 -1192.47371578 878.41159192 C-1192.47868712 856.23945143 -1192.4788564 834.06731278 -1192.47613907 811.89517212 C-1192.47601488 810.88134149 -1192.47601488 810.88134149 -1192.47588817 809.84702944 C-1192.47580524 809.17006881 -1192.47572231 808.49310817 -1192.47563687 807.79563358 C-1192.47311677 787.19711928 -1192.47246086 766.59860597 -1192.47365952 746.00009155 C-1192.47373699 744.6223629 -1192.47381415 743.24463425 -1192.47389099 741.86690559 C-1192.47420143 736.330812 -1192.4745201 730.7947184 -1192.47485075 725.2586248 C-1192.4757679 709.78158301 -1192.4763384 694.30454121 -1192.47663689 678.82749939 C-1192.47665053 678.12262805 -1192.47666418 677.41775672 -1192.47667824 676.69152565 C-1192.4770877 654.22095042 -1192.47595966 631.75037553 -1192.47378731 609.27980042 C-1192.47371706 608.55065889 -1192.47364681 607.82151737 -1192.47357443 607.07028065 C-1192.47242939 595.22843144 -1192.47120997 583.38658223 -1192.46998426 571.54473302 C-1192.46512768 524.57441742 -1192.46535309 477.60410466 -1192.47021484 430.63378906 C-1192.47143597 418.79800924 -1192.47264699 406.96222942 -1192.47378731 395.12644958 C-1192.47385776 394.39774282 -1192.4739282 393.66903605 -1192.47400079 392.91824726 C-1192.47615598 370.47174833 -1192.47707143 348.02524964 -1192.47663689 325.57875061 C-1192.4766233 324.87439255 -1192.47660972 324.17003449 -1192.47659572 323.44433225 C-1192.47628329 307.98467637 -1192.47564973 292.52502051 -1192.47472638 277.06536465 C-1192.47439722 271.53412908 -1192.47408414 266.0028935 -1192.47377567 260.47165792 C-1192.47369828 259.09554712 -1192.47361955 257.71943631 -1192.47353948 256.34332551 C-1192.47234437 235.74862344 -1192.47336526 215.15392249 -1192.47588817 194.55922056 C-1192.47597097 193.88333348 -1192.47605376 193.20744639 -1192.47613907 192.51107788 C-1192.47622175 191.83642982 -1192.47630443 191.16178176 -1192.47638962 190.46668981 C-1192.47914367 167.7464719 -1192.47813988 145.02625623 -1192.47285832 122.30603862 C-1192.46991105 109.19326656 -1192.46974611 96.0805013 -1192.4735045 82.96772942 C-1192.47573472 74.22588252 -1192.47437354 65.48404112 -1192.46999973 56.74219504 C-1192.46760442 51.75008442 -1192.46684152 46.75798736 -1192.47040571 41.76587713 C-1192.47360788 37.23497314 -1192.47230489 32.70409491 -1192.46722505 28.17319284 C-1192.4662081 26.53414641 -1192.46690923 24.89509791 -1192.46943099 23.2560531 C-1192.4725885 21.04920645 -1192.46971421 18.84245183 -1192.46519291 16.63560963 C-1192.46512515 15.40810987 -1192.4650574 14.18061012 -1192.46498758 12.9159134 C-1192.33984375 10.203125 -1192.33984375 10.203125 -1191.33984375 9.203125 C-1189.00695626 9.10075228 -1186.70349783 9.06396358 -1184.36991024 9.06890392 C-1183.62843399 9.06655169 -1182.88695774 9.06419946 -1182.12301251 9.06177595 C-1179.60624024 9.05505081 -1177.08951918 9.05554525 -1174.57273865 9.05595398 C-1172.76229827 9.05265731 -1170.95185864 9.04893216 -1169.14141995 9.0448125 C-1164.13984418 9.03475786 -1159.13828042 9.03107 -1154.13669598 9.02842319 C-1148.74991856 9.02452913 -1143.36315072 9.01494868 -1137.97637939 9.00621033 C-1124.93527415 8.98639723 -1111.89416807 8.97636342 -1098.85305151 8.96748254 C-1092.69825334 8.96309849 -1086.54345602 8.95773114 -1080.38865852 8.95249367 C-1059.89244357 8.93545958 -1039.39622915 8.92097652 -1018.9000082 8.91374493 C-1013.57404517 8.9118352 -1008.24808215 8.90991654 -1002.92211914 8.90795898 C-1002.26048378 8.90771883 -1001.59884842 8.90747868 -1000.9171635 8.90723126 C-978.91875506 8.89913686 -956.92041153 8.87400183 -934.92202508 8.84037831 C-912.97239966 8.80710682 -891.02280285 8.78927729 -869.07315212 8.78610069 C-856.77103195 8.7839516 -844.4689941 8.77544393 -832.16689873 8.74963951 C-821.6614052 8.72765471 -811.15601391 8.72001461 -800.65049999 8.72960629 C-795.31193917 8.73407533 -789.97358789 8.73271328 -784.63505745 8.71284485 C-762.5647389 8.63543732 -740.69790267 9.19995462 -718.69740295 11.05671692 C-717.71282014 11.13954309 -716.72823732 11.22236925 -715.71381866 11.30770531 C-655.08855592 16.52017085 -593.04718482 30.84733883 -541.33984375 64.203125 C-540.76459961 64.56664062 -540.18935547 64.93015625 -539.59667969 65.3046875 C-523.26624237 75.64338163 -507.69138643 87.37859465 -493.79296875 100.81933594 C-492.32283213 102.21932491 -490.82376688 103.57865812 -489.30859375 104.9296875 C-477.6792079 115.30366013 -467.56582348 126.63642419 -458.33984375 139.203125 C-457.53184326 140.29826416 -457.53184326 140.29826416 -456.70751953 141.41552734 C-454.95333108 143.79828768 -453.20730823 146.18677973 -451.46484375 148.578125 C-450.91707275 149.32731201 -450.36930176 150.07649902 -449.80493164 150.84838867 C-441.30056558 162.62275631 -441.30056558 162.62275631 -441.40625 166.875 C-442.42619395 169.41845855 -443.61279267 171.27550053 -445.27734375 173.453125 C-449.96142721 179.91981512 -453.87755533 186.76847377 -457.86962891 193.67333984 C-459.43361535 196.36447692 -461.01598637 199.04418667 -462.6015625 201.72265625 C-471.23698544 216.34745881 -479.39583039 231.19271806 -487.33984375 246.203125 C-487.86223633 247.19006348 -488.38462891 248.17700195 -488.92285156 249.19384766 C-491.7405864 254.52398722 -494.54615059 259.86034776 -497.33984375 265.203125 C-500.57779832 262.22823675 -501.76246671 258.93355192 -503.27734375 254.890625 C-507.28107165 244.70607284 -512.53573113 235.2899524 -517.90136719 225.77148438 C-519.18818755 223.47390287 -520.44675711 221.1643556 -521.69140625 218.84375 C-536.43411803 191.55249803 -557.31578244 167.52908164 -582.33984375 149.203125 C-583.47951512 148.34551495 -584.61883623 147.48743924 -585.7578125 146.62890625 C-594.19605621 140.35250688 -603.06360243 135.13699266 -612.33984375 130.203125 C-613.43425781 129.60886719 -614.52867187 129.01460937 -615.65625 128.40234375 C-631.24935999 120.23988545 -647.98365705 113.94857246 -665.07324219 109.76367188 C-667.38103343 109.1929385 -669.67567729 108.58140496 -671.97265625 107.96875 C-684.25076257 104.82555478 -696.66222999 103.06255972 -709.21484375 101.453125 C-710.04196869 101.34621338 -710.86909363 101.23930176 -711.72128296 101.12915039 C-714.15316543 100.81818788 -716.58599577 100.51647933 -719.01953125 100.21875 C-719.72023239 100.13042908 -720.42093353 100.04210815 -721.14286804 99.95111084 C-844.34725168 85.34607803 -969.27281698 98.203125 -1093.33984375 98.203125 C-1093.33984375 365.173125 -1093.33984375 632.143125 -1093.33984375 907.203125 C-1082.44984375 906.873125 -1071.55984375 906.543125 -1060.33984375 906.203125 C-1045.48984375 906.203125 -1030.63984375 906.203125 -1015.33984375 906.203125 C-1015.00984375 789.383125 -1014.67984375 672.563125 -1014.33984375 552.203125 C-903.46484375 551.828125 -903.46484375 551.828125 -868.71142578 551.72509766 C-858.25254335 551.68510071 -858.25254335 551.68510071 -847.79367065 551.64266968 C-843.20635249 551.62412328 -838.619052 551.61059743 -834.03170776 551.60043335 C-763.44862057 551.43714615 -689.14080585 551.15610726 -623.33984375 522.203125 C-622.5926709 521.87699219 -621.84549805 521.55085938 -621.07568359 521.21484375 C-610.68075036 516.63240117 -600.91721137 511.3040791 -591.33984375 505.203125 C-590.33695313 504.56761719 -589.3340625 503.93210937 -588.30078125 503.27734375 C-582.39585586 499.43357156 -576.68925353 495.33084234 -571.02734375 491.140625 C-570.36935791 490.65811279 -569.71137207 490.17560059 -569.03344727 489.6784668 C-564.98508886 486.64411653 -561.39265461 483.38363387 -557.86499023 479.75854492 C-556.16775912 478.02762457 -554.38539439 476.44668998 -552.52734375 474.890625 C-543.90016096 467.41262293 -536.34291863 459.20707842 -529.33984375 450.203125 C-528.65535156 449.32527344 -528.65535156 449.32527344 -527.95703125 448.4296875 C-520.16001271 438.38112349 -513.09061863 427.97746929 -506.33984375 417.203125 C-505.97407227 416.6246582 -505.60830078 416.04619141 -505.23144531 415.45019531 C-499.60540655 406.54890394 -494.44306168 397.40934717 -489.33984375 388.203125 C-488.16318434 386.0819766 -486.98650974 383.96083679 -485.80957031 381.83984375 C-484.98513226 380.35334696 -484.16158779 378.86635427 -483.33886719 377.37890625 C-481.04930591 373.24762813 -478.73332174 369.13376438 -476.37890625 365.0390625 C-469.69371272 353.38679843 -463.37352567 341.59354341 -457.25241089 329.63891602 C-449.49049414 314.48052946 -441.50566672 299.46370473 -432.82421875 284.80859375 C-431.34441166 282.21114288 -430.01925196 279.58000781 -428.71484375 276.890625 C-416.64360366 252.36794828 -402.36696541 227.50722703 -386.66210938 205.09375 C-385.09853337 202.85809036 -383.55582996 200.60852007 -382.01171875 198.359375 C-375.73331438 189.25868653 -369.29273374 180.36486484 -362.3515625 171.7578125 C-360.35164515 169.39506243 -360.35164515 169.39506243 -359.33984375 167.203125 C-358.67984375 167.203125 -358.01984375 167.203125 -357.33984375 167.203125 C-357.07647217 166.61756836 -356.81310059 166.03201172 -356.54174805 165.42871094 C-355.28661592 163.10456214 -353.93298421 161.49704762 -352.109375 159.59375 C-351.47064453 158.92085937 -350.83191406 158.24796875 -350.17382812 157.5546875 C-349.50673828 156.86117187 -348.83964844 156.16765625 -348.15234375 155.453125 C-343.6257784 150.71486953 -339.19444298 145.93068857 -334.90063477 140.97998047 C-329.86282394 135.24477209 -324.28612478 130.04100874 -318.49609375 125.078125 C-315.93991985 122.85536509 -313.45605934 120.56090228 -310.96484375 118.265625 C-305.920161 113.67579069 -300.73336626 109.37479053 -295.33984375 105.203125 C-294.72334961 104.72472168 -294.10685547 104.24631836 -293.47167969 103.75341797 C-280.45674945 93.66762358 -267.33904477 83.89291776 -253.33984375 75.203125 C-252.05539 74.39026958 -250.77157965 73.57639695 -249.48828125 72.76171875 C-242.83954945 68.5522508 -236.19409305 64.40571491 -229.23046875 60.73046875 C-227.14184469 59.62688495 -225.07086036 58.4896942 -223.01171875 57.33203125 C-209.53108129 49.83690969 -195.31747898 43.89673866 -181.1496582 37.84228516 C-178.71543 36.80057377 -176.29665458 35.73603416 -173.87963867 34.65380859 C-164.45841199 30.47309252 -154.85490633 27.2618964 -145.02734375 24.203125 C-144.19324982 23.94166687 -143.35915588 23.68020874 -142.49978638 23.41082764 C-129.56940828 19.36720185 -116.62390219 15.70343369 -103.37011719 12.86083984 C-100.18784231 12.17013339 -97.01868118 11.43193659 -93.84765625 10.69140625 C-79.13524132 7.35334818 -64.4383484 5.15463771 -49.46484375 3.390625 C-48.5734671 3.2853952 -47.68209045 3.18016541 -46.76370239 3.07174683 C-44.16739364 2.76902542 -41.57035294 2.47414887 -38.97265625 2.18359375 C-37.84882286 2.05588593 -37.84882286 2.05588593 -36.70228577 1.92559814 C-24.48908309 0.60315207 -12.2803336 0.04421267 0 0 Z " transform="translate(1400.33984375,522.796875)" style="fill: #000000;"/></svg>